<?xml version="1.0" standalone="no"?>
<!DOCTYPE svg PUBLIC "-//W3C//DTD SVG 20010904//EN"
 "http://www.w3.org/TR/2001/REC-SVG-20010904/DTD/svg10.dtd">
<svg version="1.0" xmlns="http://www.w3.org/2000/svg"
 width="512.000000pt" height="512.000000pt" viewBox="0 0 512.000000 512.000000"
 preserveAspectRatio="xMidYMid meet">
<metadata>
Created by potrace 1.11, written by Peter Selinger 2001-2013
</metadata>
<g transform="translate(0.000000,512.000000) scale(0.100000,-0.100000)"
fill="#000000" stroke="none">
<path d="M2153 3538 c-6 -7 -59 -96 -118 -198 -221 -378 -290 -495 -484 -823
-27 -45 -68 -115 -91 -154 l-42 -73 147 -252 c81 -139 171 -291 199 -338 l51
-85 741 -3 c696 -2 742 -1 756 15 15 17 274 456 352 596 l38 67 -741 0 c-504
0 -741 3 -741 10 0 15 65 128 214 373 l127 208 -35 57 c-19 31 -91 154 -160
272 -190 326 -201 343 -213 328z"/>
</g>
</svg>
